PathFileType	4	(X/Y/Z)	C:\Users\WrightLab\Desktop\Jo\P4V12.trc
DataRate	CameraRate	NumFrames	NumMarkers	Units	OrigDataRate	OrigDataStartFrame	OrigNumFrames
100.00	100.00	       22	19	mm	100.00	1	       602
Frame#	Time	Headset_Front			Headset_Back			Headset_Left			Headset_Right			Left_Shoulder			Right_Shoulder			Sternum			C7			Left Elbow			Right Elbow			Left Wrist			Right Wrist			Left ASIS			Right ASIS			S2			Left Knee			Right Knee			Left Ankle			Right Ankle			
		X1	Y1	Z1	X2	Y2	Z2	X3	Y3	Z3	X4	Y4	Z4	X5	Y5	Z5	X6	Y6	Z6	X7	Y7	Z7	X8	Y8	Z8	X9	Y9	Z9	X10	Y10	Z10	X11	Y11	Z11	X12	Y12	Z12	X13	Y13	Z13	X14	Y14	Z14	X15	Y15	Z15	X16	Y16	Z16	X17	Y17	Z17	X18	Y18	Z18	X19	Y19	Z19	

1	0.000	-111.53970	1605.15820	2349.70972	-375.93524	1203.20911	1823.92505							-246.97537	1555.05554	2256.66577	43.93197	1560.23596	2360.44849	-211.91402	1731.51489	2205.44141										-239.84692	1047.76514	2216.08887	164.77267	1200.08081	2384.66138										-262.64566	578.60394	2351.07275	161.73050	617.02582	2271.31714	-296.29373	126.48158	2588.41846	185.70767	108.33727	2269.51123	
2	0.010	-105.38671	1603.80872	2344.17017	-373.61432	1206.84253	1817.11267							-241.15732	1554.63477	2252.75635	49.73224	1559.63782	2356.29077	-206.70508	1731.05347	2201.64087				-415.18134	1250.79883	2116.58813	-135.45412	1095.79810	2423.06494	-234.04689	1047.52002	2211.02612	170.75449	1200.23950	2381.84204										-258.37875	578.29224	2346.64941	165.72342	615.11401	2266.56274	-296.03531	128.31786	2587.43262	187.59975	107.07568	2267.92627	
3	0.020	-99.42651	1604.10400	2340.64258	-370.84232	1210.51709	1810.09399							-235.24596	1554.61755	2248.06348	55.64914	1559.32117	2351.59375	-201.15080	1730.53186	2196.84546				-410.96140	1252.99146	2111.26904	-129.10736	1095.30139	2418.29834	-228.20749	1047.61768	2206.87598	176.77933	1199.10779	2376.99609										-254.75940	579.20459	2342.03247	170.70099	614.60120	2263.71240	-295.61478	131.40198	2586.36841	188.66495	107.15434	2267.06152	
4	0.030	-93.31403	1603.83655	2335.43042	-368.09973	1213.87683	1803.14734							-228.77898	1554.03381	2243.38184	61.76514	1558.85535	2347.32056	-195.20592	1730.10425	2192.04150				-406.45694	1255.10547	2104.96973	-122.61034	1095.11218	2412.93140	-222.25235	1047.31824	2201.93579	183.31570	1199.25342	2373.53198										-250.56973	579.19714	2335.86084	174.73495	613.61218	2258.80762	-295.18600	134.27200	2585.32520	190.29588	106.45442	2265.31079	
5	0.040	-86.78373	1604.08838	2331.29272	-365.35132	1217.51819	1797.27600							-222.63275	1554.46985	2239.73877	68.21943	1558.81580	2342.29248	-189.21614	1729.62805	2187.45264				-401.62860	1256.47644	2098.22656	-116.59679	1095.06921	2407.76587	-215.85939	1047.46497	2196.09790	189.42421	1198.55090	2368.52490										-245.84932	579.42303	2329.08521	179.23297	613.81256	2254.56836	-294.68588	137.33167	2584.03564	191.35106	105.77029	2265.10742	
6	0.050	-80.50194	1604.59363	2326.99829	-362.13196	1220.72986	1790.90833							-216.83739	1554.88892	2235.99634	74.43097	1559.15894	2337.99634	-183.72876	1729.55981	2183.57642				-396.98880	1258.84607	2094.08545	-110.19222	1095.15552	2403.06177	-209.63585	1047.64465	2191.50586	195.94919	1199.47705	2364.64868										-240.85060	580.07294	2322.71802	184.44467	613.91907	2251.29663	-293.60684	140.72026	2581.61401	191.66756	105.91238	2265.47241	
7	0.060	-73.82172	1604.59912	2321.79126	-359.38602	1224.28113	1785.62231							-210.03734	1555.09924	2231.28052	80.91281	1559.41479	2332.94775	-178.13359	1729.68127	2179.64258				-391.97629	1261.17004	2088.23560	-103.84829	1095.08972	2397.20239	-202.64168	1048.06873	2186.35254	202.76726	1198.84656	2358.84302										-236.19400	580.14795	2314.77417	190.06604	614.02258	2245.55469	-292.71170	144.56131	2580.02173	192.20654	106.01518	2265.03076	
8	0.070	-67.13226	1605.40686	2318.02588	-356.16977	1227.79932	1779.75891							-203.59254	1555.83838	2226.91089	87.26293	1559.62427	2329.07593	-172.31310	1730.26770	2175.28833				-387.39441	1263.26794	2082.91431	-97.66559	1095.81372	2392.99609	-195.87207	1049.02075	2180.83203	209.48074	1199.71216	2354.73242										-231.51675	580.86926	2307.14282	196.35646	614.73651	2243.12939	-291.74918	149.29283	2577.82568	193.06525	105.73892	2264.37573	
9	0.080	-60.53586	1605.79150	2313.20703	-352.80518	1231.23425	1773.90112							-197.48203	1556.94775	2223.04248	93.74890	1560.27759	2324.08081	-166.45638	1730.49341	2171.04736				-381.84100	1266.11462	2078.21582	-91.66732	1096.19763	2386.76196	-188.91856	1049.92603	2173.80103	215.64714	1200.76917	2349.81689										-226.22270	580.72485	2299.38037	201.94565	614.66956	2237.81543	-290.35599	153.88042	2575.26074	193.89890	105.36429	2263.82153	
10	0.090	-54.28717	1606.83179	2308.83252	-349.83133	1234.74268	1768.63684							-190.62466	1557.34778	2218.16943	100.04121	1561.15308	2320.36963	-160.10823	1730.66797	2166.50610				-377.14926	1268.50378	2072.54810	-85.07870	1097.03735	2381.48145	-181.86935	1050.55420	2168.77124	222.98631	1201.53088	2344.72827										-221.08266	581.39087	2289.55713	207.73282	615.06165	2235.57080	-289.50949	161.35349	2573.63208	194.20845	105.46034	2263.72437	
11	0.100	-47.33165	1608.00964	2304.82251	-346.38773	1237.91492	1762.65540							-183.74567	1558.07776	2213.86157	106.65901	1561.83081	2315.62378	-154.20326	1731.31860	2161.94946				-371.14102	1271.25623	2067.90649	-79.27505	1097.26575	2376.31372	-174.87619	1051.38074	2162.78857	229.24557	1202.16028	2339.75366										-216.20233	582.69891	2276.89429	212.48857	614.51801	2231.34912	-286.44135	165.35510	2568.32886	194.68533	105.48679	2263.12695	
12	0.110	-40.91095	1608.42224	2300.03857	-343.01801	1241.45410	1757.76221							-177.49339	1559.45630	2210.71216	113.08772	1562.82593	2311.63892	-148.13817	1732.07947	2157.45459				-366.39023	1273.49170	2062.14185	-73.32489	1097.82886	2370.84131	-167.69316	1052.35352	2157.10205	236.29842	1203.23987	2335.00317										-210.04047	582.00800	2266.88110	216.94012	614.32043	2228.66504	-284.41409	172.55505	2565.28320	194.69534	105.95955	2263.08228	
13	0.120	-34.59584	1609.76831	2295.98071	-340.05969	1244.49463	1752.74414							-171.47862	1560.48230	2206.89478	119.89568	1563.93445	2306.61865	-142.49640	1732.88892	2153.54590				-360.77002	1276.46265	2058.77466	-66.96643	1098.64099	2366.04980	-160.76855	1053.21179	2152.33813	243.28235	1204.44275	2329.43726										-203.80574	582.09277	2256.39941	219.77023	614.04315	2226.91553	-280.97473	178.25644	2560.55859	195.19670	105.69894	2262.22510	
14	0.130	-27.40559	1610.93030	2291.08423	-336.48502	1247.75635	1747.56006							-164.11679	1560.71338	2201.66162	125.52873	1565.38123	2302.90332	-136.51559	1733.31970	2149.05615				-355.39771	1278.01855	2052.47241	-61.53757	1099.24695	2360.19751	-154.00827	1054.44006	2145.35474	249.87993	1206.42017	2325.50684										-198.09694	582.26959	2241.23975	223.30859	613.20837	2223.58008	-277.68829	185.45450	2554.58545	195.35844	106.03451	2261.30518	
15	0.140	-21.05440	1611.43677	2286.07935	-332.94141	1251.09155	1742.33569							-157.57457	1561.99890	2197.89893	132.30684	1566.24902	2297.98486	-130.53969	1734.06824	2145.10474				-349.73019	1280.67554	2048.72803	-55.70614	1099.60974	2354.65601	-147.20491	1055.47156	2141.03979	256.96484	1206.78882	2319.50098										-191.88283	581.51715	2229.46997	224.93990	612.13947	2218.92188	-273.59555	193.18155	2549.44727	195.35753	106.11043	2261.24805	
16	0.150	-14.52257	1612.50952	2282.26147	-329.91312	1253.93872	1737.38635							-151.48042	1563.08923	2194.35791	138.75310	1567.15564	2292.95264	-124.69102	1734.61548	2140.51123				-344.58032	1282.57495	2043.57922	-50.39086	1100.24243	2350.15942	-140.89375	1056.78003	2134.40283	263.74341	1208.29492	2315.97803										-185.18736	581.21423	2217.57837	228.54755	610.93628	2217.79785	-268.69531	201.60023	2543.60693	195.37810	106.26874	2261.30542	
17	0.160	-7.89840	1613.27551	2277.49487	-326.56015	1256.97034	1732.76660							-145.05118	1563.56006	2189.73877	144.87505	1567.98657	2289.00146	-118.62261	1735.02820	2136.40991				-339.07077	1284.97729	2039.39807	-45.13791	1100.06726	2344.26465	-134.62303	1057.60461	2129.70776	270.57553	1209.46106	2310.10132										-177.97290	580.54614	2201.97705	231.43463	610.68286	2214.96729	-263.37891	210.78615	2536.40015	195.54341	106.49147	2261.06982	
18	0.170	-1.93919	1614.00549	2273.27905	-322.72192	1259.59998	1727.89392							-137.97194	1563.54053	2184.81128				-113.07225	1735.76624	2132.23462				-333.71735	1286.90417	2034.76233	-39.68741	1099.91882	2339.15015	-128.81879	1058.65503	2123.93433	278.04300	1211.19482	2305.76709										-170.30496	579.24799	2188.05566	234.57707	610.30121	2212.55737	-257.60843	220.15671	2529.59058	196.12790	106.24325	2260.09985	
19	0.180	5.19339	1614.26892	2268.08203	-319.44431	1262.28040	1723.96301							-132.02423	1564.75977	2181.72485	157.95769	1569.56604	2278.17285	-107.02805	1735.85486	2127.65186				-328.70117	1288.24438	2030.74048	-35.26411	1100.86658	2336.12573	-123.02488	1059.80090	2117.70508	284.51694	1211.70886	2300.37842				198.71344	1093.46106	2216.89697				-162.54402	578.43878	2172.62378	238.44370	610.73480	2208.33545	-251.17387	229.96228	2521.25903	196.13661	106.29770	2260.13257	
20	0.190	10.93354	1614.96289	2263.70068	-316.29208	1265.12952	1719.21790							-126.50005	1565.14954	2177.33301	163.61299	1570.67004	2274.14697	-101.45042	1736.40381	2123.80444				-323.78253	1289.71753	2026.75537	-30.08400	1100.17725	2330.00049	-117.65076	1060.53271	2113.27954	291.97302	1212.71082	2296.33130				204.07913	1094.21411	2210.84473				-154.95633	578.14642	2157.83643	242.40143	609.40204	2206.95581	-243.50548	239.02089	2511.35962	196.14861	106.36217	2260.18433	
21	0.200	17.21959	1616.00049	2259.41748	-312.63083	1267.56409	1714.22888							-120.67809	1566.07324	2174.16895	169.87932	1571.13477	2267.98730	-95.99567	1736.66089	2119.32593				-318.84247	1291.62061	2022.60046	-25.50982	1099.94910	2323.84570	-112.30426	1061.41382	2108.72949	298.72369	1213.24841	2290.39185				209.58504	1094.72900	2205.57666				-147.37306	577.91925	2141.67969	245.73531	609.81824	2203.71509	-235.17209	249.75526	2501.98926	196.15353	106.41446	2260.18872	
22	0.210	23.51223	1616.12073	2253.52979	-309.19980	1269.76428	1709.29919							-114.82032	1566.37415	2168.91626	175.93755	1571.59827	2263.66260	-90.51791	1737.14038	2115.40552				-313.60718	1292.82117	2018.37695	-20.81592	1100.57532	2320.67529	-107.36225	1061.86072	2105.16675	305.67960	1214.76306	2286.73657				214.34592	1095.52881	2197.42358				-139.93315	577.74750	2126.70459	249.05620	609.05511	2200.69922	-225.88754	259.13406	2491.01953	196.13004	106.35931	2260.04004	
